# xmcd
# 
# Track frame offsets:
#     150
#     14042
#     46066
#     61722
#     83522
#     99441
#     113210
#     128961
#     151889
#     171655
#     184482
#     206943
#     239532
# 
# Disc length: 3473
# 
# Revision: 0
# Processed by: cddbd v1.5.2PL0 Copyright (c) Steve Scherf et al.
# Submitted via: fre:ac v1.0.31
# 
DISCID=b30d8f0d
DTITLE=Various Artist - 極上JAZZ
DYEAR=2018
DGENRE=Jazz
TTITLE0=Carl Perkins - It Could Happen to You
TTITLE1=Harold Land - Ursula
TTITLE2=Red Callender - You're Part of Me
TTITLE3=The Bill Perkins Octet - One Hundred Years from Today
TTITLE4=Teddy Edwards - I Hear a Rhapsody
TTITLE5=Dave Pell Octet - Just One More Chance
TTITLE6=The Gerald Wiggins Trio - Dinah
TTITLE7=Curtis Counce Group - Larue
TTITLE8=Marty Paich - No More
TTITLE9=Stu Williamson - The Things We Did Last Summer
TTITLE10=Gerry Mulligan - Little Girl Blue
TTITLE11=Jimmy Giuffre - Crawdad Suite
TTITLE12=The Chico Hamilton Quintet - Close Your Eyes
EXTD=
EXTT0=
EXTT1=
EXTT2=
EXTT3=
EXTT4=
EXTT5=
EXTT6=
EXTT7=
EXTT8=
EXTT9=
EXTT10=
EXTT11=
EXTT12=
PLAYORDER=
